<?xml version="1.0" encoding="utf-8" standalone="no"?>
<!DOCTYPE svg PUBLIC "-//W3C//DTD SVG 1.1//EN"
  "http://www.w3.org/Graphics/SVG/1.1/DTD/svg11.dtd">
<svg height="288pt" version="1.1" viewBox="0 0 720 288" width="720pt" xmlns="http://www.w3.org/2000/svg" xmlns:xlink="http://www.w3.org/1999/xlink">
 <metadata>
  <rdf:RDF xmlns:cc="http://creativecommons.org/ns#" xmlns:dc="http://purl.org/dc/elements/1.1/" xmlns:rdf="http://www.w3.org/1999/02/22-rdf-syntax-ns#">
   <cc:Work>
    <dc:type rdf:resource="http://purl.org/dc/dcmitype/StillImage"/>
    <dc:date>2021-11-13T16:45:59.302439</dc:date>
    <dc:format>image/svg+xml</dc:format>
    <dc:creator>
     <cc:Agent>
      <dc:title>Matplotlib v3.4.2, https://matplotlib.org/</dc:title>
     </cc:Agent>
    </dc:creator>
   </cc:Work>
  </rdf:RDF>
 </metadata>
 <defs>
  <style type="text/css">*{stroke-linecap:butt;stroke-linejoin:round;}</style>
 </defs>
 <g id="figure_1">
  <g id="patch_1">
   <path d="M 0 288 
L 720 288 
L 720 0 
L 0 0 
z
" style="fill:#ffffff;"/>
  </g>
  <g id="axes_1">
   <g id="patch_2">
    <path d="M 90 252 
L 343.636364 252 
L 343.636364 34.56 
L 90 34.56 
z
" style="fill:#eaeaf2;"/>
   </g>
   <g id="matplotlib.axis_1">
    <g id="xtick_1">
     <g id="line2d_1">
      <path clip-path="url(#p34d8c891ef)" d="M 90 252 
L 90 34.56 
" style="fill:none;stroke:#ffffff;stroke-linecap:round;stroke-width:0.8;"/>
     </g>
     <g id="text_1">
      <!-- 0.0 -->
      <g style="fill:#262626;" transform="translate(83.05 266.157812)scale(0.1 -0.1)">
       <defs>
        <path d="M 266 2259 
Q 266 3072 433 3567 
Q 600 4063 929 4331 
Q 1259 4600 1759 4600 
Q 2128 4600 2406 4451 
Q 2684 4303 2865 4023 
Q 3047 3744 3150 3342 
Q 3253 2941 3253 2259 
Q 3253 1453 3087 958 
Q 2922 463 2592 192 
Q 2263 -78 1759 -78 
Q 1097 -78 719 397 
Q 266 969 266 2259 
z
M 844 2259 
Q 844 1131 1108 757 
Q 1372 384 1759 384 
Q 2147 384 2411 759 
Q 2675 1134 2675 2259 
Q 2675 3391 2411 3762 
Q 2147 4134 1753 4134 
Q 1366 4134 1134 3806 
Q 844 3388 844 2259 
z
" id="ArialMT-30" transform="scale(0.015625)"/>
        <path d="M 581 0 
L 581 641 
L 1222 641 
L 1222 0 
L 581 0 
z
" id="ArialMT-2e" transform="scale(0.015625)"/>
       </defs>
       <use xlink:href="#ArialMT-30"/>
       <use x="55.615234" xlink:href="#ArialMT-2e"/>
       <use x="83.398438" xlink:href="#ArialMT-30"/>
      </g>
     </g>
    </g>
    <g id="xtick_2">
     <g id="line2d_2">
      <path clip-path="url(#p34d8c891ef)" d="M 140.727273 252 
L 140.727273 34.56 
" style="fill:none;stroke:#ffffff;stroke-linecap:round;stroke-width:0.8;"/>
     </g>
     <g id="text_2">
      <!-- 0.2 -->
      <g style="fill:#262626;" transform="translate(133.777273 266.157812)scale(0.1 -0.1)">
       <defs>
        <path d="M 3222 541 
L 3222 0 
L 194 0 
Q 188 203 259 391 
Q 375 700 629 1000 
Q 884 1300 1366 1694 
Q 2113 2306 2375 2664 
Q 2638 3022 2638 3341 
Q 2638 3675 2398 3904 
Q 2159 4134 1775 4134 
Q 1369 4134 1125 3890 
Q 881 3647 878 3216 
L 300 3275 
Q 359 3922 746 4261 
Q 1134 4600 1788 4600 
Q 2447 4600 2831 4234 
Q 3216 3869 3216 3328 
Q 3216 3053 3103 2787 
Q 2991 2522 2730 2228 
Q 2469 1934 1863 1422 
Q 1356 997 1212 845 
Q 1069 694 975 541 
L 3222 541 
z
" id="ArialMT-32" transform="scale(0.015625)"/>
       </defs>
       <use xlink:href="#ArialMT-30"/>
       <use x="55.615234" xlink:href="#ArialMT-2e"/>
       <use x="83.398438" xlink:href="#ArialMT-32"/>
      </g>
     </g>
    </g>
    <g id="xtick_3">
     <g id="line2d_3">
      <path clip-path="url(#p34d8c891ef)" d="M 191.454545 252 
L 191.454545 34.56 
" style="fill:none;stroke:#ffffff;stroke-linecap:round;stroke-width:0.8;"/>
     </g>
     <g id="text_3">
      <!-- 0.4 -->
      <g style="fill:#262626;" transform="translate(184.504545 266.157812)scale(0.1 -0.1)">
       <defs>
        <path d="M 2069 0 
L 2069 1097 
L 81 1097 
L 81 1613 
L 2172 4581 
L 2631 4581 
L 2631 1613 
L 3250 1613 
L 3250 1097 
L 2631 1097 
L 2631 0 
L 2069 0 
z
M 2069 1613 
L 2069 3678 
L 634 1613 
L 2069 1613 
z
" id="ArialMT-34" transform="scale(0.015625)"/>
       </defs>
       <use xlink:href="#ArialMT-30"/>
       <use x="55.615234" xlink:href="#ArialMT-2e"/>
       <use x="83.398438" xlink:href="#ArialMT-34"/>
      </g>
     </g>
    </g>
    <g id="xtick_4">
     <g id="line2d_4">
      <path clip-path="url(#p34d8c891ef)" d="M 242.181818 252 
L 242.181818 34.56 
" style="fill:none;stroke:#ffffff;stroke-linecap:round;stroke-width:0.8;"/>
     </g>
     <g id="text_4">
      <!-- 0.6 -->
      <g style="fill:#262626;" transform="translate(235.231818 266.157812)scale(0.1 -0.1)">
       <defs>
        <path d="M 3184 3459 
L 2625 3416 
Q 2550 3747 2413 3897 
Q 2184 4138 1850 4138 
Q 1581 4138 1378 3988 
Q 1113 3794 959 3422 
Q 806 3050 800 2363 
Q 1003 2672 1297 2822 
Q 1591 2972 1913 2972 
Q 2475 2972 2870 2558 
Q 3266 2144 3266 1488 
Q 3266 1056 3080 686 
Q 2894 316 2569 119 
Q 2244 -78 1831 -78 
Q 1128 -78 684 439 
Q 241 956 241 2144 
Q 241 3472 731 4075 
Q 1159 4600 1884 4600 
Q 2425 4600 2770 4297 
Q 3116 3994 3184 3459 
z
M 888 1484 
Q 888 1194 1011 928 
Q 1134 663 1356 523 
Q 1578 384 1822 384 
Q 2178 384 2434 671 
Q 2691 959 2691 1453 
Q 2691 1928 2437 2201 
Q 2184 2475 1800 2475 
Q 1419 2475 1153 2201 
Q 888 1928 888 1484 
z
" id="ArialMT-36" transform="scale(0.015625)"/>
       </defs>
       <use xlink:href="#ArialMT-30"/>
       <use x="55.615234" xlink:href="#ArialMT-2e"/>
       <use x="83.398438" xlink:href="#ArialMT-36"/>
      </g>
     </g>
    </g>
    <g id="xtick_5">
     <g id="line2d_5">
      <path clip-path="url(#p34d8c891ef)" d="M 292.909091 252 
L 292.909091 34.56 
" style="fill:none;stroke:#ffffff;stroke-linecap:round;stroke-width:0.8;"/>
     </g>
     <g id="text_5">
      <!-- 0.8 -->
      <g style="fill:#262626;" transform="translate(285.959091 266.157812)scale(0.1 -0.1)">
       <defs>
        <path d="M 1131 2484 
Q 781 2613 612 2850 
Q 444 3088 444 3419 
Q 444 3919 803 4259 
Q 1163 4600 1759 4600 
Q 2359 4600 2725 4251 
Q 3091 3903 3091 3403 
Q 3091 3084 2923 2848 
Q 2756 2613 2416 2484 
Q 2838 2347 3058 2040 
Q 3278 1734 3278 1309 
Q 3278 722 2862 322 
Q 2447 -78 1769 -78 
Q 1091 -78 675 323 
Q 259 725 259 1325 
Q 259 1772 486 2073 
Q 713 2375 1131 2484 
z
M 1019 3438 
Q 1019 3113 1228 2906 
Q 1438 2700 1772 2700 
Q 2097 2700 2305 2904 
Q 2513 3109 2513 3406 
Q 2513 3716 2298 3927 
Q 2084 4138 1766 4138 
Q 1444 4138 1231 3931 
Q 1019 3725 1019 3438 
z
M 838 1322 
Q 838 1081 952 856 
Q 1066 631 1291 507 
Q 1516 384 1775 384 
Q 2178 384 2440 643 
Q 2703 903 2703 1303 
Q 2703 1709 2433 1975 
Q 2163 2241 1756 2241 
Q 1359 2241 1098 1978 
Q 838 1716 838 1322 
z
" id="ArialMT-38" transform="scale(0.015625)"/>
       </defs>
       <use xlink:href="#ArialMT-30"/>
       <use x="55.615234" xlink:href="#ArialMT-2e"/>
       <use x="83.398438" xlink:href="#ArialMT-38"/>
      </g>
     </g>
    </g>
    <g id="xtick_6">
     <g id="line2d_6">
      <path clip-path="url(#p34d8c891ef)" d="M 343.636364 252 
L 343.636364 34.56 
" style="fill:none;stroke:#ffffff;stroke-linecap:round;stroke-width:0.8;"/>
     </g>
     <g id="text_6">
      <!-- 1.0 -->
      <g style="fill:#262626;" transform="translate(336.686364 266.157812)scale(0.1 -0.1)">
       <defs>
        <path d="M 2384 0 
L 1822 0 
L 1822 3584 
Q 1619 3391 1289 3197 
Q 959 3003 697 2906 
L 697 3450 
Q 1169 3672 1522 3987 
Q 1875 4303 2022 4600 
L 2384 4600 
L 2384 0 
z
" id="ArialMT-31" transform="scale(0.015625)"/>
       </defs>
       <use xlink:href="#ArialMT-31"/>
       <use x="55.615234" xlink:href="#ArialMT-2e"/>
       <use x="83.398438" xlink:href="#ArialMT-30"/>
      </g>
     </g>
    </g>
    <g id="text_7">
     <!-- $t/T$ -->
     <g style="fill:#262626;" transform="translate(208.108182 281.450469)scale(0.13 -0.13)">
      <defs>
       <path d="M 2706 3500 
L 2619 3053 
L 1472 3053 
L 1100 1153 
Q 1081 1047 1072 975 
Q 1063 903 1063 863 
Q 1063 663 1183 572 
Q 1303 481 1569 481 
L 2150 481 
L 2053 0 
L 1503 0 
Q 991 0 739 200 
Q 488 400 488 806 
Q 488 878 497 964 
Q 506 1050 525 1153 
L 897 3053 
L 409 3053 
L 500 3500 
L 978 3500 
L 1172 4494 
L 1747 4494 
L 1556 3500 
L 2706 3500 
z
" id="DejaVuSans-Oblique-74" transform="scale(0.015625)"/>
       <path d="M 1625 4666 
L 2156 4666 
L 531 -594 
L 0 -594 
L 1625 4666 
z
" id="DejaVuSans-2f" transform="scale(0.015625)"/>
       <path d="M 378 4666 
L 4325 4666 
L 4225 4134 
L 2559 4134 
L 1759 0 
L 1125 0 
L 1925 4134 
L 275 4134 
L 378 4666 
z
" id="DejaVuSans-Oblique-54" transform="scale(0.015625)"/>
      </defs>
      <use transform="translate(0 0.09375)" xlink:href="#DejaVuSans-Oblique-74"/>
      <use transform="translate(39.208984 0.09375)" xlink:href="#DejaVuSans-2f"/>
      <use transform="translate(72.900391 0.09375)" xlink:href="#DejaVuSans-Oblique-54"/>
     </g>
    </g>
   </g>
   <g id="matplotlib.axis_2">
    <g id="ytick_1">
     <g id="line2d_7">
      <path clip-path="url(#p34d8c891ef)" d="M 90 242.921098 
L 343.636364 242.921098 
" style="fill:none;stroke:#ffffff;stroke-linecap:round;stroke-width:0.8;"/>
     </g>
     <g id="text_8">
      <!-- −1.00 -->
      <g style="fill:#262626;" transform="translate(57.698437 246.500004)scale(0.1 -0.1)">
       <defs>
        <path d="M 3381 1997 
L 356 1997 
L 356 2522 
L 3381 2522 
L 3381 1997 
z
" id="ArialMT-2212" transform="scale(0.015625)"/>
       </defs>
       <use xlink:href="#ArialMT-2212"/>
       <use x="58.398438" xlink:href="#ArialMT-31"/>
       <use x="114.013672" xlink:href="#ArialMT-2e"/>
       <use x="141.796875" xlink:href="#ArialMT-30"/>
       <use x="197.412109" xlink:href="#ArialMT-30"/>
      </g>
     </g>
    </g>
    <g id="ytick_2">
     <g id="line2d_8">
      <path clip-path="url(#p34d8c891ef)" d="M 90 217.899484 
L 343.636364 217.899484 
" style="fill:none;stroke:#ffffff;stroke-linecap:round;stroke-width:0.8;"/>
     </g>
     <g id="text_9">
      <!-- −0.75 -->
      <g style="fill:#262626;" transform="translate(57.698437 221.47839)scale(0.1 -0.1)">
       <defs>
        <path d="M 303 3981 
L 303 4522 
L 3269 4522 
L 3269 4084 
Q 2831 3619 2401 2847 
Q 1972 2075 1738 1259 
Q 1569 684 1522 0 
L 944 0 
Q 953 541 1156 1306 
Q 1359 2072 1739 2783 
Q 2119 3494 2547 3981 
L 303 3981 
z
" id="ArialMT-37" transform="scale(0.015625)"/>
        <path d="M 266 1200 
L 856 1250 
Q 922 819 1161 601 
Q 1400 384 1738 384 
Q 2144 384 2425 690 
Q 2706 997 2706 1503 
Q 2706 1984 2436 2262 
Q 2166 2541 1728 2541 
Q 1456 2541 1237 2417 
Q 1019 2294 894 2097 
L 366 2166 
L 809 4519 
L 3088 4519 
L 3088 3981 
L 1259 3981 
L 1013 2750 
Q 1425 3038 1878 3038 
Q 2478 3038 2890 2622 
Q 3303 2206 3303 1553 
Q 3303 931 2941 478 
Q 2500 -78 1738 -78 
Q 1113 -78 717 272 
Q 322 622 266 1200 
z
" id="ArialMT-35" transform="scale(0.015625)"/>
       </defs>
       <use xlink:href="#ArialMT-2212"/>
       <use x="58.398438" xlink:href="#ArialMT-30"/>
       <use x="114.013672" xlink:href="#ArialMT-2e"/>
       <use x="141.796875" xlink:href="#ArialMT-37"/>
       <use x="197.412109" xlink:href="#ArialMT-35"/>
      </g>
     </g>
    </g>
    <g id="ytick_3">
     <g id="line2d_9">
      <path clip-path="url(#p34d8c891ef)" d="M 90 192.87787 
L 343.636364 192.87787 
" style="fill:none;stroke:#ffffff;stroke-linecap:round;stroke-width:0.8;"/>
     </g>
     <g id="text_10">
      <!-- −0.50 -->
      <g style="fill:#262626;" transform="translate(57.698437 196.456776)scale(0.1 -0.1)">
       <use xlink:href="#ArialMT-2212"/>
       <use x="58.398438" xlink:href="#ArialMT-30"/>
       <use x="114.013672" xlink:href="#ArialMT-2e"/>
       <use x="141.796875" xlink:href="#ArialMT-35"/>
       <use x="197.412109" xlink:href="#ArialMT-30"/>
      </g>
     </g>
    </g>
    <g id="ytick_4">
     <g id="line2d_10">
      <path clip-path="url(#p34d8c891ef)" d="M 90 167.856256 
L 343.636364 167.856256 
" style="fill:none;stroke:#ffffff;stroke-linecap:round;stroke-width:0.8;"/>
     </g>
     <g id="text_11">
      <!-- −0.25 -->
      <g style="fill:#262626;" transform="translate(57.698437 171.435162)scale(0.1 -0.1)">
       <use xlink:href="#ArialMT-2212"/>
       <use x="58.398438" xlink:href="#ArialMT-30"/>
       <use x="114.013672" xlink:href="#ArialMT-2e"/>
       <use x="141.796875" xlink:href="#ArialMT-32"/>
       <use x="197.412109" xlink:href="#ArialMT-35"/>
      </g>
     </g>
    </g>
    <g id="ytick_5">
     <g id="line2d_11">
      <path clip-path="url(#p34d8c891ef)" d="M 90 142.834642 
L 343.636364 142.834642 
" style="fill:none;stroke:#ffffff;stroke-linecap:round;stroke-width:0.8;"/>
     </g>
     <g id="text_12">
      <!-- 0.00 -->
      <g style="fill:#262626;" transform="translate(63.539062 146.413548)scale(0.1 -0.1)">
       <use xlink:href="#ArialMT-30"/>
       <use x="55.615234" xlink:href="#ArialMT-2e"/>
       <use x="83.398438" xlink:href="#ArialMT-30"/>
       <use x="139.013672" xlink:href="#ArialMT-30"/>
      </g>
     </g>
    </g>
    <g id="ytick_6">
     <g id="line2d_12">
      <path clip-path="url(#p34d8c891ef)" d="M 90 117.813028 
L 343.636364 117.813028 
" style="fill:none;stroke:#ffffff;stroke-linecap:round;stroke-width:0.8;"/>
     </g>
     <g id="text_13">
      <!-- 0.25 -->
      <g style="fill:#262626;" transform="translate(63.539062 121.391934)scale(0.1 -0.1)">
       <use xlink:href="#ArialMT-30"/>
       <use x="55.615234" xlink:href="#ArialMT-2e"/>
       <use x="83.398438" xlink:href="#ArialMT-32"/>
       <use x="139.013672" xlink:href="#ArialMT-35"/>
      </g>
     </g>
    </g>
    <g id="ytick_7">
     <g id="line2d_13">
      <path clip-path="url(#p34d8c891ef)" d="M 90 92.791414 
L 343.636364 92.791414 
" style="fill:none;stroke:#ffffff;stroke-linecap:round;stroke-width:0.8;"/>
     </g>
     <g id="text_14">
      <!-- 0.50 -->
      <g style="fill:#262626;" transform="translate(63.539062 96.37032)scale(0.1 -0.1)">
       <use xlink:href="#ArialMT-30"/>
       <use x="55.615234" xlink:href="#ArialMT-2e"/>
       <use x="83.398438" xlink:href="#ArialMT-35"/>
       <use x="139.013672" xlink:href="#ArialMT-30"/>
      </g>
     </g>
    </g>
    <g id="ytick_8">
     <g id="line2d_14">
      <path clip-path="url(#p34d8c891ef)" d="M 90 67.7698 
L 343.636364 67.7698 
" style="fill:none;stroke:#ffffff;stroke-linecap:round;stroke-width:0.8;"/>
     </g>
     <g id="text_15">
      <!-- 0.75 -->
      <g style="fill:#262626;" transform="translate(63.539062 71.348706)scale(0.1 -0.1)">
       <use xlink:href="#ArialMT-30"/>
       <use x="55.615234" xlink:href="#ArialMT-2e"/>
       <use x="83.398438" xlink:href="#ArialMT-37"/>
       <use x="139.013672" xlink:href="#ArialMT-35"/>
      </g>
     </g>
    </g>
    <g id="ytick_9">
     <g id="line2d_15">
      <path clip-path="url(#p34d8c891ef)" d="M 90 42.748186 
L 343.636364 42.748186 
" style="fill:none;stroke:#ffffff;stroke-linecap:round;stroke-width:0.8;"/>
     </g>
     <g id="text_16">
      <!-- 1.00 -->
      <g style="fill:#262626;" transform="translate(63.539062 46.327093)scale(0.1 -0.1)">
       <use xlink:href="#ArialMT-31"/>
       <use x="55.615234" xlink:href="#ArialMT-2e"/>
       <use x="83.398438" xlink:href="#ArialMT-30"/>
       <use x="139.013672" xlink:href="#ArialMT-30"/>
      </g>
     </g>
    </g>
    <g id="text_17">
     <!-- $y = f(x)$ -->
     <g style="fill:#262626;" transform="translate(50.968437 166.355)rotate(-90)scale(0.13 -0.13)">
      <defs>
       <path d="M 1588 -325 
Q 1188 -997 936 -1164 
Q 684 -1331 294 -1331 
L -159 -1331 
L -63 -850 
L 269 -850 
Q 509 -850 678 -719 
Q 847 -588 1056 -206 
L 1234 128 
L 459 3500 
L 1069 3500 
L 1650 819 
L 3256 3500 
L 3859 3500 
L 1588 -325 
z
" id="DejaVuSans-Oblique-79" transform="scale(0.015625)"/>
       <path d="M 678 2906 
L 4684 2906 
L 4684 2381 
L 678 2381 
L 678 2906 
z
M 678 1631 
L 4684 1631 
L 4684 1100 
L 678 1100 
L 678 1631 
z
" id="DejaVuSans-3d" transform="scale(0.015625)"/>
       <path d="M 3059 4863 
L 2969 4384 
L 2419 4384 
Q 2106 4384 1964 4261 
Q 1822 4138 1753 3809 
L 1691 3500 
L 2638 3500 
L 2553 3053 
L 1606 3053 
L 1013 0 
L 434 0 
L 1031 3053 
L 481 3053 
L 563 3500 
L 1113 3500 
L 1159 3744 
Q 1278 4363 1576 4613 
Q 1875 4863 2516 4863 
L 3059 4863 
z
" id="DejaVuSans-Oblique-66" transform="scale(0.015625)"/>
       <path d="M 1984 4856 
Q 1566 4138 1362 3434 
Q 1159 2731 1159 2009 
Q 1159 1288 1364 580 
Q 1569 -128 1984 -844 
L 1484 -844 
Q 1016 -109 783 600 
Q 550 1309 550 2009 
Q 550 2706 781 3412 
Q 1013 4119 1484 4856 
L 1984 4856 
z
" id="DejaVuSans-28" transform="scale(0.015625)"/>
       <path d="M 3841 3500 
L 2234 1784 
L 3219 0 
L 2559 0 
L 1819 1388 
L 531 0 
L -166 0 
L 1556 1844 
L 641 3500 
L 1300 3500 
L 1972 2234 
L 3144 3500 
L 3841 3500 
z
" id="DejaVuSans-Oblique-78" transform="scale(0.015625)"/>
       <path d="M 513 4856 
L 1013 4856 
Q 1481 4119 1714 3412 
Q 1947 2706 1947 2009 
Q 1947 1309 1714 600 
Q 1481 -109 1013 -844 
L 513 -844 
Q 928 -128 1133 580 
Q 1338 1288 1338 2009 
Q 1338 2731 1133 3434 
Q 928 4138 513 4856 
z
" id="DejaVuSans-29" transform="scale(0.015625)"/>
      </defs>
      <use transform="translate(0 0.015625)" xlink:href="#DejaVuSans-Oblique-79"/>
      <use transform="translate(78.662109 0.015625)" xlink:href="#DejaVuSans-3d"/>
      <use transform="translate(181.933594 0.015625)" xlink:href="#DejaVuSans-Oblique-66"/>
      <use transform="translate(217.138672 0.015625)" xlink:href="#DejaVuSans-28"/>
      <use transform="translate(256.152344 0.015625)" xlink:href="#DejaVuSans-Oblique-78"/>
      <use transform="translate(315.332031 0.015625)" xlink:href="#DejaVuSans-29"/>
     </g>
    </g>
   </g>
   <g id="line2d_16">
    <path clip-path="url(#p34d8c891ef)" d="M 90 142.834642 
L 91.015561 142.184014 
L 92.285012 141.097277 
L 93.808354 139.454003 
L 95.585586 137.192193 
L 101.678952 129.119029 
L 102.948403 127.880164 
L 104.217854 126.951357 
L 105.233415 126.471747 
L 106.248976 126.255454 
L 107.264537 126.32528 
L 108.026208 126.576693 
L 109.041769 127.188811 
L 110.05733 128.126234 
L 111.072891 129.393695 
L 112.088452 130.990498 
L 113.357903 133.439631 
L 114.627355 136.368896 
L 116.150696 140.463875 
L 117.927928 145.925476 
L 120.21294 153.741832 
L 126.560197 176.054379 
L 128.337428 181.253829 
L 129.60688 184.396045 
L 130.876331 186.961416 
L 131.891892 188.544857 
L 132.907453 189.672594 
L 133.669124 190.200671 
L 134.430794 190.444084 
L 135.192465 190.393729 
L 135.954136 190.042443 
L 136.715807 189.385085 
L 137.477477 188.418607 
L 138.239148 187.142104 
L 139.254709 184.960369 
L 140.27027 182.239139 
L 141.539722 178.104136 
L 142.809173 173.198429 
L 144.332514 166.383868 
L 146.109746 157.331669 
L 148.394758 144.369541 
L 156.519247 96.645411 
L 158.296478 88.20635 
L 159.81982 82.140053 
L 161.089271 78.048197 
L 162.104832 75.471336 
L 163.120393 73.55651 
L 163.882064 72.574492 
L 164.643735 71.99401 
L 165.151515 71.834372 
L 165.659296 71.858889 
L 166.167076 72.068948 
L 166.674857 72.465424 
L 167.436527 73.410314 
L 168.198198 74.774355 
L 168.959869 76.553928 
L 169.97543 79.56188 
L 170.990991 83.275063 
L 172.260442 88.861553 
L 173.529894 95.426154 
L 175.053235 104.46106 
L 176.830467 116.349166 
L 179.115479 133.206004 
L 186.732187 191.045762 
L 188.509419 202.345156 
L 190.03276 210.696308 
L 191.302211 216.549094 
L 192.571663 221.280869 
L 193.587224 224.198456 
L 194.348894 225.855522 
L 195.110565 227.043215 
L 195.872236 227.751788 
L 196.380016 227.954453 
L 196.887797 227.93969 
L 197.395577 227.706725 
L 197.903358 227.25536 
L 198.665029 226.169804 
L 199.426699 224.597563 
L 200.18837 222.545281 
L 201.203931 219.07906 
L 202.219492 214.807135 
L 203.488943 208.394617 
L 204.758395 200.87953 
L 206.281736 190.566983 
L 208.058968 177.04263 
L 210.597871 155.730501 
L 217.452907 96.645449 
L 219.484029 81.685562 
L 221.007371 71.982245 
L 222.276822 65.080604 
L 223.546274 59.381117 
L 224.561835 55.753416 
L 225.577396 52.998594 
L 226.339066 51.524698 
L 227.100737 50.569745 
L 227.608518 50.224969 
L 228.116298 50.115293 
L 228.624079 50.241419 
L 229.131859 50.603439 
L 229.63964 51.200836 
L 230.40131 52.535629 
L 231.162981 54.390974 
L 232.178542 57.657824 
L 233.194103 61.802487 
L 234.463554 68.156408 
L 235.733006 75.722544 
L 237.256347 86.236613 
L 239.033579 100.180108 
L 241.318591 120.094267 
L 245.888616 162.700727 
L 248.681409 187.525067 
L 250.712531 203.629178 
L 252.235872 214.167389 
L 253.759214 223.1095 
L 255.028665 229.189398 
L 256.044226 233.081985 
L 257.059787 236.065817 
L 257.821458 237.687671 
L 258.583129 238.770108 
L 259.090909 239.188515 
L 259.59869 239.362769 
L 260.10647 239.292219 
L 260.614251 238.976839 
L 261.122031 238.417231 
L 261.883702 237.122742 
L 262.645373 235.288398 
L 263.407043 232.924071 
L 264.422604 228.969993 
L 265.438165 224.135912 
L 266.707617 216.929615 
L 268.230958 206.726084 
L 270.00819 192.971046 
L 272.039312 175.333573 
L 275.085995 146.563129 
L 279.65602 103.412264 
L 281.687142 86.243458 
L 283.464373 73.048151 
L 284.987715 63.427429 
L 286.257166 56.773462 
L 287.272727 52.421134 
L 288.288288 48.981099 
L 289.049959 47.021615 
L 289.81163 45.607122 
L 290.573301 44.746043 
L 291.081081 44.482171 
L 291.588862 44.467433 
L 292.096642 44.701966 
L 292.604423 45.185274 
L 293.112203 45.916225 
L 293.873874 47.472962 
L 294.635545 49.574213 
L 295.651106 53.202246 
L 296.666667 57.741029 
L 297.936118 64.625219 
L 299.205569 72.752912 
L 300.728911 83.966403 
L 302.506143 98.737382 
L 304.791155 119.690464 
L 312.915643 196.187211 
L 314.692875 210.01427 
L 316.216216 220.234201 
L 317.485667 227.419118 
L 318.755119 233.270319 
L 319.77068 236.927535 
L 320.532351 239.047917 
L 321.294021 240.620802 
L 322.055692 241.637058 
L 322.563473 242.00225 
L 323.071253 242.116364 
L 323.579034 241.979062 
L 324.086814 241.590647 
L 324.594595 240.952056 
L 325.356265 239.528703 
L 326.117936 237.554106 
L 327.133497 234.083473 
L 328.149058 229.687797 
L 329.418509 222.960595 
L 330.687961 214.963662 
L 332.211302 203.870056 
L 333.988534 189.185051 
L 336.273546 168.253909 
L 343.636364 97.621046 
L 343.636364 97.621046 
" style="fill:none;stroke:#808080;stroke-linecap:round;stroke-width:1.5;"/>
   </g>
   <g id="line2d_17">
    <defs>
     <path d="M 0 3 
C 0.795609 3 1.55874 2.683901 2.12132 2.12132 
C 2.683901 1.55874 3 0.795609 3 0 
C 3 -0.795609 2.683901 -1.55874 2.12132 -2.12132 
C 1.55874 -2.683901 0.795609 -3 0 -3 
C -0.795609 -3 -1.55874 -2.683901 -2.12132 -2.12132 
C -2.683901 -1.55874 -3 -0.795609 -3 0 
C -3 0.795609 -2.683901 1.55874 -2.12132 2.12132 
C -1.55874 2.683901 -0.795609 3 0 3 
z
" id="m08c3130dad" style="stroke:#000000;"/>
    </defs>
    <g clip-path="url(#p34d8c891ef)">
     <use style="stroke:#000000;" x="90" xlink:href="#m08c3130dad" y="142.81822"/>
     <use style="stroke:#000000;" x="138.190909" xlink:href="#m08c3130dad" y="187.06975"/>
     <use style="stroke:#000000;" x="150.872727" xlink:href="#m08c3130dad" y="129.689014"/>
     <use style="stroke:#000000;" x="187.65" xlink:href="#m08c3130dad" y="196.844353"/>
     <use style="stroke:#000000;" x="200.331818" xlink:href="#m08c3130dad" y="222.241643"/>
     <use style="stroke:#000000;" x="210.477273" xlink:href="#m08c3130dad" y="157.293988"/>
     <use style="stroke:#000000;" x="221.890909" xlink:href="#m08c3130dad" y="67.266908"/>
     <use style="stroke:#000000;" x="230.768182" xlink:href="#m08c3130dad" y="53.1704"/>
     <use style="stroke:#000000;" x="254.863636" xlink:href="#m08c3130dad" y="228.365789"/>
     <use style="stroke:#000000;" x="259.936364" xlink:href="#m08c3130dad" y="239.71583"/>
     <use style="stroke:#000000;" x="282.763636" xlink:href="#m08c3130dad" y="77.815934"/>
     <use style="stroke:#000000;" x="299.25" xlink:href="#m08c3130dad" y="73.086968"/>
     <use style="stroke:#000000;" x="305.590909" xlink:href="#m08c3130dad" y="127.229366"/>
     <use style="stroke:#000000;" x="314.468182" xlink:href="#m08c3130dad" y="208.26411"/>
     <use style="stroke:#000000;" x="330.954545" xlink:href="#m08c3130dad" y="213.510161"/>
    </g>
   </g>
   <g id="line2d_18">
    <path clip-path="url(#p34d8c891ef)" d="M 90 142.824148 
L 95.585586 143.015626 
L 98.886159 143.329857 
L 101.425061 143.777957 
L 103.456183 144.33785 
L 105.233415 145.029998 
L 107.010647 145.964369 
L 108.533989 147.000068 
L 110.05733 148.289827 
L 111.580672 149.866633 
L 113.104013 151.757853 
L 114.627355 153.981382 
L 116.404586 157.000151 
L 118.181818 160.451426 
L 120.46683 165.412301 
L 127.067977 180.22227 
L 128.591319 182.888143 
L 129.86077 184.637453 
L 130.876331 185.661951 
L 131.638002 186.183812 
L 132.399672 186.477006 
L 133.161343 186.528299 
L 133.923014 186.327028 
L 134.684685 185.865392 
L 135.446355 185.138705 
L 136.208026 184.145589 
L 137.223587 182.411078 
L 138.239148 180.221676 
L 139.5086 176.885517 
L 141.031941 172.103456 
L 142.809173 165.671652 
L 145.601966 154.50566 
L 148.902539 141.438782 
L 150.679771 135.23014 
L 152.203112 130.662737 
L 153.472563 127.490263 
L 154.742015 124.947461 
L 155.757576 123.384375 
L 156.773137 122.243438 
L 157.534808 121.661477 
L 158.296478 121.308461 
L 159.058149 121.176996 
L 159.81982 121.257932 
L 160.581491 121.540691 
L 161.597052 122.211377 
L 162.612613 123.190502 
L 163.882064 124.801736 
L 165.151515 126.788914 
L 166.674857 129.594108 
L 168.452088 133.34784 
L 170.48321 138.160554 
L 172.768223 144.150389 
L 175.307125 151.488906 
L 177.846028 159.574933 
L 180.38493 168.422617 
L 183.431613 179.893025 
L 189.017199 201.191192 
L 190.794431 207.079123 
L 192.317772 211.367199 
L 193.587224 214.239779 
L 194.602785 215.990418 
L 195.364455 216.944838 
L 196.126126 217.565958 
L 196.887797 217.832507 
L 197.395577 217.80376 
L 197.903358 217.603977 
L 198.411138 217.228755 
L 199.172809 216.328828 
L 199.93448 215.015651 
L 200.696151 213.282565 
L 201.711712 210.313901 
L 202.727273 206.597037 
L 203.996724 200.923446 
L 205.266175 194.162553 
L 206.789517 184.736577 
L 208.566749 172.18547 
L 210.851761 154.212761 
L 218.468468 92.453104 
L 220.2457 80.637751 
L 221.769042 72.05228 
L 223.038493 66.160051 
L 224.054054 62.351139 
L 225.069615 59.394924 
L 225.831286 57.758224 
L 226.592957 56.63115 
L 227.100737 56.166652 
L 227.608518 55.933353 
L 228.116298 55.931974 
L 228.624079 56.162596 
L 229.131859 56.624665 
L 229.89353 57.748974 
L 230.655201 59.384635 
L 231.416871 61.522004 
L 232.432432 65.130075 
L 233.447993 69.569675 
L 234.717445 76.217497 
L 236.240786 85.66181 
L 238.018018 98.423751 
L 240.04914 114.814704 
L 243.095823 141.578008 
L 247.411957 179.526674 
L 249.443079 195.54435 
L 251.220311 207.787137 
L 252.743653 216.614556 
L 254.013104 222.613689 
L 255.028665 226.442553 
L 256.044226 229.358762 
L 256.805897 230.926059 
L 257.567568 231.950721 
L 258.075348 232.329306 
L 258.583129 232.463307 
L 259.090909 232.352816 
L 259.59869 231.998743 
L 260.10647 231.402811 
L 260.868141 230.061191 
L 261.629812 228.193165 
L 262.645373 224.911418 
L 263.660934 220.769837 
L 264.930385 214.473262 
L 266.199836 207.05867 
L 267.723178 196.90082 
L 269.7543 181.694661 
L 272.800983 156.784856 
L 277.624898 117.302286 
L 279.90991 100.492226 
L 281.687142 88.844112 
L 283.464373 78.707982 
L 284.987715 71.380665 
L 286.257166 66.324029 
L 287.272727 63.011045 
L 288.288288 60.381838 
L 289.049959 58.875804 
L 289.81163 57.781568 
L 290.573301 57.109453 
L 291.081081 56.900524 
L 291.588862 56.885811 
L 292.096642 57.067482 
L 292.604423 57.44739 
L 293.366093 58.392116 
L 294.127764 59.789509 
L 294.889435 61.640633 
L 295.904996 64.811562 
L 296.920557 68.774415 
L 298.190008 74.807364 
L 299.459459 81.975909 
L 300.982801 91.941012 
L 302.760033 105.163643 
L 305.045045 123.997123 
L 311.646192 179.699793 
L 313.423423 192.385685 
L 314.946765 201.795766 
L 316.216216 208.46255 
L 317.485667 213.987353 
L 318.501229 217.56164 
L 319.51679 220.381716 
L 320.532351 222.458716 
L 321.294021 223.542048 
L 322.055692 224.233267 
L 322.817363 224.548531 
L 323.325143 224.558927 
L 324.086814 224.289886 
L 324.848485 223.698699 
L 325.610156 222.80842 
L 326.625717 221.197732 
L 327.641278 219.156514 
L 328.910729 216.089277 
L 330.43407 211.801222 
L 332.465192 205.356063 
L 336.019656 193.151046 
L 339.82801 180.333714 
L 342.366912 172.597148 
L 343.636364 169.066783 
L 343.636364 169.066783 
" style="fill:none;stroke:#0000ff;stroke-dasharray:5.55,2.4;stroke-dashoffset:0;stroke-width:1.5;"/>
   </g>
   <g id="patch_3">
    <path d="M 90 252 
L 90 34.56 
" style="fill:none;stroke:#ffffff;stroke-linecap:square;stroke-linejoin:miter;stroke-width:0.8;"/>
   </g>
   <g id="patch_4">
    <path d="M 343.636364 252 
L 343.636364 34.56 
" style="fill:none;stroke:#ffffff;stroke-linecap:square;stroke-linejoin:miter;stroke-width:0.8;"/>
   </g>
   <g id="patch_5">
    <path d="M 90 252 
L 343.636364 252 
" style="fill:none;stroke:#ffffff;stroke-linecap:square;stroke-linejoin:miter;stroke-width:0.8;"/>
   </g>
   <g id="patch_6">
    <path d="M 90 34.56 
L 343.636364 34.56 
" style="fill:none;stroke:#ffffff;stroke-linecap:square;stroke-linejoin:miter;stroke-width:0.8;"/>
   </g>
   <g id="text_18">
    <!-- Data-based GLM -->
    <g style="fill:#262626;" transform="translate(171.132869 28.56)scale(0.12 -0.12)">
     <defs>
      <path d="M 494 0 
L 494 4581 
L 2072 4581 
Q 2606 4581 2888 4516 
Q 3281 4425 3559 4188 
Q 3922 3881 4101 3404 
Q 4281 2928 4281 2316 
Q 4281 1794 4159 1391 
Q 4038 988 3847 723 
Q 3656 459 3429 307 
Q 3203 156 2883 78 
Q 2563 0 2147 0 
L 494 0 
z
M 1100 541 
L 2078 541 
Q 2531 541 2789 625 
Q 3047 709 3200 863 
Q 3416 1078 3536 1442 
Q 3656 1806 3656 2325 
Q 3656 3044 3420 3430 
Q 3184 3816 2847 3947 
Q 2603 4041 2063 4041 
L 1100 4041 
L 1100 541 
z
" id="ArialMT-44" transform="scale(0.015625)"/>
      <path d="M 2588 409 
Q 2275 144 1986 34 
Q 1697 -75 1366 -75 
Q 819 -75 525 192 
Q 231 459 231 875 
Q 231 1119 342 1320 
Q 453 1522 633 1644 
Q 813 1766 1038 1828 
Q 1203 1872 1538 1913 
Q 2219 1994 2541 2106 
Q 2544 2222 2544 2253 
Q 2544 2597 2384 2738 
Q 2169 2928 1744 2928 
Q 1347 2928 1158 2789 
Q 969 2650 878 2297 
L 328 2372 
Q 403 2725 575 2942 
Q 747 3159 1072 3276 
Q 1397 3394 1825 3394 
Q 2250 3394 2515 3294 
Q 2781 3194 2906 3042 
Q 3031 2891 3081 2659 
Q 3109 2516 3109 2141 
L 3109 1391 
Q 3109 606 3145 398 
Q 3181 191 3288 0 
L 2700 0 
Q 2613 175 2588 409 
z
M 2541 1666 
Q 2234 1541 1622 1453 
Q 1275 1403 1131 1340 
Q 988 1278 909 1158 
Q 831 1038 831 891 
Q 831 666 1001 516 
Q 1172 366 1500 366 
Q 1825 366 2078 508 
Q 2331 650 2450 897 
Q 2541 1088 2541 1459 
L 2541 1666 
z
" id="ArialMT-61" transform="scale(0.015625)"/>
      <path d="M 1650 503 
L 1731 6 
Q 1494 -44 1306 -44 
Q 1000 -44 831 53 
Q 663 150 594 308 
Q 525 466 525 972 
L 525 2881 
L 113 2881 
L 113 3319 
L 525 3319 
L 525 4141 
L 1084 4478 
L 1084 3319 
L 1650 3319 
L 1650 2881 
L 1084 2881 
L 1084 941 
Q 1084 700 1114 631 
Q 1144 563 1211 522 
Q 1278 481 1403 481 
Q 1497 481 1650 503 
z
" id="ArialMT-74" transform="scale(0.015625)"/>
      <path d="M 203 1375 
L 203 1941 
L 1931 1941 
L 1931 1375 
L 203 1375 
z
" id="ArialMT-2d" transform="scale(0.015625)"/>
      <path d="M 941 0 
L 419 0 
L 419 4581 
L 981 4581 
L 981 2947 
Q 1338 3394 1891 3394 
Q 2197 3394 2470 3270 
Q 2744 3147 2920 2923 
Q 3097 2700 3197 2384 
Q 3297 2069 3297 1709 
Q 3297 856 2875 390 
Q 2453 -75 1863 -75 
Q 1275 -75 941 416 
L 941 0 
z
M 934 1684 
Q 934 1088 1097 822 
Q 1363 388 1816 388 
Q 2184 388 2453 708 
Q 2722 1028 2722 1663 
Q 2722 2313 2464 2622 
Q 2206 2931 1841 2931 
Q 1472 2931 1203 2611 
Q 934 2291 934 1684 
z
" id="ArialMT-62" transform="scale(0.015625)"/>
      <path d="M 197 991 
L 753 1078 
Q 800 744 1014 566 
Q 1228 388 1613 388 
Q 2000 388 2187 545 
Q 2375 703 2375 916 
Q 2375 1106 2209 1216 
Q 2094 1291 1634 1406 
Q 1016 1563 777 1677 
Q 538 1791 414 1992 
Q 291 2194 291 2438 
Q 291 2659 392 2848 
Q 494 3038 669 3163 
Q 800 3259 1026 3326 
Q 1253 3394 1513 3394 
Q 1903 3394 2198 3281 
Q 2494 3169 2634 2976 
Q 2775 2784 2828 2463 
L 2278 2388 
Q 2241 2644 2061 2787 
Q 1881 2931 1553 2931 
Q 1166 2931 1000 2803 
Q 834 2675 834 2503 
Q 834 2394 903 2306 
Q 972 2216 1119 2156 
Q 1203 2125 1616 2013 
Q 2213 1853 2448 1751 
Q 2684 1650 2818 1456 
Q 2953 1263 2953 975 
Q 2953 694 2789 445 
Q 2625 197 2315 61 
Q 2006 -75 1616 -75 
Q 969 -75 630 194 
Q 291 463 197 991 
z
" id="ArialMT-73" transform="scale(0.015625)"/>
      <path d="M 2694 1069 
L 3275 997 
Q 3138 488 2766 206 
Q 2394 -75 1816 -75 
Q 1088 -75 661 373 
Q 234 822 234 1631 
Q 234 2469 665 2931 
Q 1097 3394 1784 3394 
Q 2450 3394 2872 2941 
Q 3294 2488 3294 1666 
Q 3294 1616 3291 1516 
L 816 1516 
Q 847 969 1125 678 
Q 1403 388 1819 388 
Q 2128 388 2347 550 
Q 2566 713 2694 1069 
z
M 847 1978 
L 2700 1978 
Q 2663 2397 2488 2606 
Q 2219 2931 1791 2931 
Q 1403 2931 1139 2672 
Q 875 2413 847 1978 
z
" id="ArialMT-65" transform="scale(0.015625)"/>
      <path d="M 2575 0 
L 2575 419 
Q 2259 -75 1647 -75 
Q 1250 -75 917 144 
Q 584 363 401 755 
Q 219 1147 219 1656 
Q 219 2153 384 2558 
Q 550 2963 881 3178 
Q 1213 3394 1622 3394 
Q 1922 3394 2156 3267 
Q 2391 3141 2538 2938 
L 2538 4581 
L 3097 4581 
L 3097 0 
L 2575 0 
z
M 797 1656 
Q 797 1019 1065 703 
Q 1334 388 1700 388 
Q 2069 388 2326 689 
Q 2584 991 2584 1609 
Q 2584 2291 2321 2609 
Q 2059 2928 1675 2928 
Q 1300 2928 1048 2622 
Q 797 2316 797 1656 
z
" id="ArialMT-64" transform="scale(0.015625)"/>
      <path id="ArialMT-20" transform="scale(0.015625)"/>
      <path d="M 2638 1797 
L 2638 2334 
L 4578 2338 
L 4578 638 
Q 4131 281 3656 101 
Q 3181 -78 2681 -78 
Q 2006 -78 1454 211 
Q 903 500 622 1047 
Q 341 1594 341 2269 
Q 341 2938 620 3517 
Q 900 4097 1425 4378 
Q 1950 4659 2634 4659 
Q 3131 4659 3532 4498 
Q 3934 4338 4162 4050 
Q 4391 3763 4509 3300 
L 3963 3150 
Q 3859 3500 3706 3700 
Q 3553 3900 3268 4020 
Q 2984 4141 2638 4141 
Q 2222 4141 1919 4014 
Q 1616 3888 1430 3681 
Q 1244 3475 1141 3228 
Q 966 2803 966 2306 
Q 966 1694 1177 1281 
Q 1388 869 1791 669 
Q 2194 469 2647 469 
Q 3041 469 3416 620 
Q 3791 772 3984 944 
L 3984 1797 
L 2638 1797 
z
" id="ArialMT-47" transform="scale(0.015625)"/>
      <path d="M 469 0 
L 469 4581 
L 1075 4581 
L 1075 541 
L 3331 541 
L 3331 0 
L 469 0 
z
" id="ArialMT-4c" transform="scale(0.015625)"/>
      <path d="M 475 0 
L 475 4581 
L 1388 4581 
L 2472 1338 
Q 2622 884 2691 659 
Q 2769 909 2934 1394 
L 4031 4581 
L 4847 4581 
L 4847 0 
L 4263 0 
L 4263 3834 
L 2931 0 
L 2384 0 
L 1059 3900 
L 1059 0 
L 475 0 
z
" id="ArialMT-4d" transform="scale(0.015625)"/>
     </defs>
     <use xlink:href="#ArialMT-44"/>
     <use x="72.216797" xlink:href="#ArialMT-61"/>
     <use x="127.832031" xlink:href="#ArialMT-74"/>
     <use x="155.615234" xlink:href="#ArialMT-61"/>
     <use x="211.230469" xlink:href="#ArialMT-2d"/>
     <use x="244.53125" xlink:href="#ArialMT-62"/>
     <use x="300.146484" xlink:href="#ArialMT-61"/>
     <use x="355.761719" xlink:href="#ArialMT-73"/>
     <use x="405.761719" xlink:href="#ArialMT-65"/>
     <use x="461.376953" xlink:href="#ArialMT-64"/>
     <use x="516.992188" xlink:href="#ArialMT-20"/>
     <use x="544.775391" xlink:href="#ArialMT-47"/>
     <use x="622.558594" xlink:href="#ArialMT-4c"/>
     <use x="678.173828" xlink:href="#ArialMT-4d"/>
    </g>
   </g>
  </g>
  <g id="axes_2">
   <g id="patch_7">
    <path d="M 394.363636 252 
L 648 252 
L 648 34.56 
L 394.363636 34.56 
z
" style="fill:#eaeaf2;"/>
   </g>
   <g id="matplotlib.axis_3">
    <g id="xtick_7">
     <g id="line2d_19">
      <path clip-path="url(#pd28ea5c6b4)" d="M 394.363636 252 
L 394.363636 34.56 
" style="fill:none;stroke:#ffffff;stroke-linecap:round;stroke-width:0.8;"/>
     </g>
     <g id="text_19">
      <!-- 0.0 -->
      <g style="fill:#262626;" transform="translate(387.413636 266.157812)scale(0.1 -0.1)">
       <use xlink:href="#ArialMT-30"/>
       <use x="55.615234" xlink:href="#ArialMT-2e"/>
       <use x="83.398438" xlink:href="#ArialMT-30"/>
      </g>
     </g>
    </g>
    <g id="xtick_8">
     <g id="line2d_20">
      <path clip-path="url(#pd28ea5c6b4)" d="M 445.090909 252 
L 445.090909 34.56 
" style="fill:none;stroke:#ffffff;stroke-linecap:round;stroke-width:0.8;"/>
     </g>
     <g id="text_20">
      <!-- 0.2 -->
      <g style="fill:#262626;" transform="translate(438.140909 266.157812)scale(0.1 -0.1)">
       <use xlink:href="#ArialMT-30"/>
       <use x="55.615234" xlink:href="#ArialMT-2e"/>
       <use x="83.398438" xlink:href="#ArialMT-32"/>
      </g>
     </g>
    </g>
    <g id="xtick_9">
     <g id="line2d_21">
      <path clip-path="url(#pd28ea5c6b4)" d="M 495.818182 252 
L 495.818182 34.56 
" style="fill:none;stroke:#ffffff;stroke-linecap:round;stroke-width:0.8;"/>
     </g>
     <g id="text_21">
      <!-- 0.4 -->
      <g style="fill:#262626;" transform="translate(488.868182 266.157812)scale(0.1 -0.1)">
       <use xlink:href="#ArialMT-30"/>
       <use x="55.615234" xlink:href="#ArialMT-2e"/>
       <use x="83.398438" xlink:href="#ArialMT-34"/>
      </g>
     </g>
    </g>
    <g id="xtick_10">
     <g id="line2d_22">
      <path clip-path="url(#pd28ea5c6b4)" d="M 546.545455 252 
L 546.545455 34.56 
" style="fill:none;stroke:#ffffff;stroke-linecap:round;stroke-width:0.8;"/>
     </g>
     <g id="text_22">
      <!-- 0.6 -->
      <g style="fill:#262626;" transform="translate(539.595455 266.157812)scale(0.1 -0.1)">
       <use xlink:href="#ArialMT-30"/>
       <use x="55.615234" xlink:href="#ArialMT-2e"/>
       <use x="83.398438" xlink:href="#ArialMT-36"/>
      </g>
     </g>
    </g>
    <g id="xtick_11">
     <g id="line2d_23">
      <path clip-path="url(#pd28ea5c6b4)" d="M 597.272727 252 
L 597.272727 34.56 
" style="fill:none;stroke:#ffffff;stroke-linecap:round;stroke-width:0.8;"/>
     </g>
     <g id="text_23">
      <!-- 0.8 -->
      <g style="fill:#262626;" transform="translate(590.322727 266.157812)scale(0.1 -0.1)">
       <use xlink:href="#ArialMT-30"/>
       <use x="55.615234" xlink:href="#ArialMT-2e"/>
       <use x="83.398438" xlink:href="#ArialMT-38"/>
      </g>
     </g>
    </g>
    <g id="xtick_12">
     <g id="line2d_24">
      <path clip-path="url(#pd28ea5c6b4)" d="M 648 252 
L 648 34.56 
" style="fill:none;stroke:#ffffff;stroke-linecap:round;stroke-width:0.8;"/>
     </g>
     <g id="text_24">
      <!-- 1.0 -->
      <g style="fill:#262626;" transform="translate(641.05 266.157812)scale(0.1 -0.1)">
       <use xlink:href="#ArialMT-31"/>
       <use x="55.615234" xlink:href="#ArialMT-2e"/>
       <use x="83.398438" xlink:href="#ArialMT-30"/>
      </g>
     </g>
    </g>
    <g id="text_25">
     <!-- $t/T$ -->
     <g style="fill:#262626;" transform="translate(512.471818 281.450469)scale(0.13 -0.13)">
      <use transform="translate(0 0.09375)" xlink:href="#DejaVuSans-Oblique-74"/>
      <use transform="translate(39.208984 0.09375)" xlink:href="#DejaVuSans-2f"/>
      <use transform="translate(72.900391 0.09375)" xlink:href="#DejaVuSans-Oblique-54"/>
     </g>
    </g>
   </g>
   <g id="matplotlib.axis_4">
    <g id="ytick_10">
     <g id="line2d_25">
      <path clip-path="url(#pd28ea5c6b4)" d="M 394.363636 242.921098 
L 648 242.921098 
" style="fill:none;stroke:#ffffff;stroke-linecap:round;stroke-width:0.8;"/>
     </g>
    </g>
    <g id="ytick_11">
     <g id="line2d_26">
      <path clip-path="url(#pd28ea5c6b4)" d="M 394.363636 217.899484 
L 648 217.899484 
" style="fill:none;stroke:#ffffff;stroke-linecap:round;stroke-width:0.8;"/>
     </g>
    </g>
    <g id="ytick_12">
     <g id="line2d_27">
      <path clip-path="url(#pd28ea5c6b4)" d="M 394.363636 192.87787 
L 648 192.87787 
" style="fill:none;stroke:#ffffff;stroke-linecap:round;stroke-width:0.8;"/>
     </g>
    </g>
    <g id="ytick_13">
     <g id="line2d_28">
      <path clip-path="url(#pd28ea5c6b4)" d="M 394.363636 167.856256 
L 648 167.856256 
" style="fill:none;stroke:#ffffff;stroke-linecap:round;stroke-width:0.8;"/>
     </g>
    </g>
    <g id="ytick_14">
     <g id="line2d_29">
      <path clip-path="url(#pd28ea5c6b4)" d="M 394.363636 142.834642 
L 648 142.834642 
" style="fill:none;stroke:#ffffff;stroke-linecap:round;stroke-width:0.8;"/>
     </g>
    </g>
    <g id="ytick_15">
     <g id="line2d_30">
      <path clip-path="url(#pd28ea5c6b4)" d="M 394.363636 117.813028 
L 648 117.813028 
" style="fill:none;stroke:#ffffff;stroke-linecap:round;stroke-width:0.8;"/>
     </g>
    </g>
    <g id="ytick_16">
     <g id="line2d_31">
      <path clip-path="url(#pd28ea5c6b4)" d="M 394.363636 92.791414 
L 648 92.791414 
" style="fill:none;stroke:#ffffff;stroke-linecap:round;stroke-width:0.8;"/>
     </g>
    </g>
    <g id="ytick_17">
     <g id="line2d_32">
      <path clip-path="url(#pd28ea5c6b4)" d="M 394.363636 67.7698 
L 648 67.7698 
" style="fill:none;stroke:#ffffff;stroke-linecap:round;stroke-width:0.8;"/>
     </g>
    </g>
    <g id="ytick_18">
     <g id="line2d_33">
      <path clip-path="url(#pd28ea5c6b4)" d="M 394.363636 42.748186 
L 648 42.748186 
" style="fill:none;stroke:#ffffff;stroke-linecap:round;stroke-width:0.8;"/>
     </g>
    </g>
   </g>
   <g id="line2d_34">
    <path clip-path="url(#pd28ea5c6b4)" d="M 394.363636 142.834642 
L 395.379197 142.184014 
L 396.648649 141.097277 
L 398.17199 139.454003 
L 399.949222 137.192193 
L 406.042588 129.119029 
L 407.312039 127.880164 
L 408.581491 126.951357 
L 409.597052 126.471747 
L 410.612613 126.255454 
L 411.628174 126.32528 
L 412.389844 126.576693 
L 413.405405 127.188811 
L 414.420966 128.126234 
L 415.436527 129.393695 
L 416.452088 130.990498 
L 417.72154 133.439631 
L 418.990991 136.368896 
L 420.514333 140.463875 
L 422.291564 145.925476 
L 424.576577 153.741832 
L 430.923833 176.054379 
L 432.701065 181.253829 
L 433.970516 184.396045 
L 435.239967 186.961416 
L 436.255528 188.544857 
L 437.271089 189.672594 
L 438.03276 190.200671 
L 438.794431 190.444084 
L 439.556102 190.393729 
L 440.317772 190.042443 
L 441.079443 189.385085 
L 441.841114 188.418607 
L 442.602785 187.142104 
L 443.618346 184.960369 
L 444.633907 182.239139 
L 445.903358 178.104136 
L 447.172809 173.198429 
L 448.696151 166.383868 
L 450.473382 157.331669 
L 452.758395 144.369541 
L 460.882883 96.645411 
L 462.660115 88.20635 
L 464.183456 82.140053 
L 465.452907 78.048197 
L 466.468468 75.471336 
L 467.484029 73.55651 
L 468.2457 72.574492 
L 469.007371 71.99401 
L 469.515152 71.834372 
L 470.022932 71.858889 
L 470.530713 72.068948 
L 471.038493 72.465424 
L 471.800164 73.410314 
L 472.561835 74.774355 
L 473.323505 76.553928 
L 474.339066 79.56188 
L 475.354627 83.275063 
L 476.624079 88.861553 
L 477.89353 95.426154 
L 479.416871 104.46106 
L 481.194103 116.349166 
L 483.479115 133.206004 
L 491.095823 191.045762 
L 492.873055 202.345156 
L 494.396396 210.696308 
L 495.665848 216.549094 
L 496.935299 221.280869 
L 497.95086 224.198456 
L 498.712531 225.855522 
L 499.474201 227.043215 
L 500.235872 227.751788 
L 500.743653 227.954453 
L 501.251433 227.93969 
L 501.759214 227.706725 
L 502.266994 227.25536 
L 503.028665 226.169804 
L 503.790336 224.597563 
L 504.552007 222.545281 
L 505.567568 219.07906 
L 506.583129 214.807135 
L 507.85258 208.394617 
L 509.122031 200.87953 
L 510.645373 190.566983 
L 512.422604 177.04263 
L 514.961507 155.730501 
L 521.816544 96.645449 
L 523.847666 81.685562 
L 525.371007 71.982245 
L 526.640459 65.080604 
L 527.90991 59.381117 
L 528.925471 55.753416 
L 529.941032 52.998594 
L 530.702703 51.524698 
L 531.464373 50.569745 
L 531.972154 50.224969 
L 532.479934 50.115293 
L 532.987715 50.241419 
L 533.495495 50.603439 
L 534.003276 51.200836 
L 534.764947 52.535629 
L 535.526618 54.390974 
L 536.542179 57.657824 
L 537.55774 61.802487 
L 538.827191 68.156408 
L 540.096642 75.722544 
L 541.619984 86.236613 
L 543.397215 100.180108 
L 545.682228 120.094267 
L 550.252252 162.700727 
L 553.045045 187.525067 
L 555.076167 203.629178 
L 556.599509 214.167389 
L 558.12285 223.1095 
L 559.392301 229.189398 
L 560.407862 233.081985 
L 561.423423 236.065817 
L 562.185094 237.687671 
L 562.946765 238.770108 
L 563.454545 239.188515 
L 563.962326 239.362769 
L 564.470106 239.292219 
L 564.977887 238.976839 
L 565.485667 238.417231 
L 566.247338 237.122742 
L 567.009009 235.288398 
L 567.77068 232.924071 
L 568.786241 228.969993 
L 569.801802 224.135912 
L 571.071253 216.929615 
L 572.594595 206.726084 
L 574.371826 192.971046 
L 576.402948 175.333573 
L 579.449631 146.563129 
L 584.019656 103.412264 
L 586.050778 86.243458 
L 587.82801 73.048151 
L 589.351351 63.427429 
L 590.620803 56.773462 
L 591.636364 52.421134 
L 592.651925 48.981099 
L 593.413595 47.021615 
L 594.175266 45.607122 
L 594.936937 44.746043 
L 595.444717 44.482171 
L 595.952498 44.467433 
L 596.460278 44.701966 
L 596.968059 45.185274 
L 597.475839 45.916225 
L 598.23751 47.472962 
L 598.999181 49.574213 
L 600.014742 53.202246 
L 601.030303 57.741029 
L 602.299754 64.625219 
L 603.569206 72.752912 
L 605.092547 83.966403 
L 606.869779 98.737382 
L 609.154791 119.690464 
L 617.279279 196.187211 
L 619.056511 210.01427 
L 620.579853 220.234201 
L 621.849304 227.419118 
L 623.118755 233.270319 
L 624.134316 236.927535 
L 624.895987 239.047917 
L 625.657658 240.620802 
L 626.419328 241.637058 
L 626.927109 242.00225 
L 627.434889 242.116364 
L 627.94267 241.979062 
L 628.45045 241.590647 
L 628.958231 240.952056 
L 629.719902 239.528703 
L 630.481572 237.554106 
L 631.497133 234.083473 
L 632.512695 229.687797 
L 633.782146 222.960595 
L 635.051597 214.963662 
L 636.574939 203.870056 
L 638.35217 189.185051 
L 640.637183 168.253909 
L 648 97.621046 
L 648 97.621046 
" style="fill:none;stroke:#808080;stroke-linecap:round;stroke-width:1.5;"/>
   </g>
   <g id="line2d_35">
    <g clip-path="url(#pd28ea5c6b4)">
     <use style="stroke:#000000;" x="394.363636" xlink:href="#m08c3130dad" y="142.81822"/>
     <use style="stroke:#000000;" x="442.554545" xlink:href="#m08c3130dad" y="187.06975"/>
     <use style="stroke:#000000;" x="455.236364" xlink:href="#m08c3130dad" y="129.689014"/>
     <use style="stroke:#000000;" x="492.013636" xlink:href="#m08c3130dad" y="196.844353"/>
     <use style="stroke:#000000;" x="504.695455" xlink:href="#m08c3130dad" y="222.241643"/>
     <use style="stroke:#000000;" x="514.840909" xlink:href="#m08c3130dad" y="157.293988"/>
     <use style="stroke:#000000;" x="526.254545" xlink:href="#m08c3130dad" y="67.266908"/>
     <use style="stroke:#000000;" x="535.131818" xlink:href="#m08c3130dad" y="53.1704"/>
     <use style="stroke:#000000;" x="559.227273" xlink:href="#m08c3130dad" y="228.365789"/>
     <use style="stroke:#000000;" x="564.3" xlink:href="#m08c3130dad" y="239.71583"/>
     <use style="stroke:#000000;" x="587.127273" xlink:href="#m08c3130dad" y="77.815934"/>
     <use style="stroke:#000000;" x="603.613636" xlink:href="#m08c3130dad" y="73.086968"/>
     <use style="stroke:#000000;" x="609.954545" xlink:href="#m08c3130dad" y="127.229366"/>
     <use style="stroke:#000000;" x="618.831818" xlink:href="#m08c3130dad" y="208.26411"/>
     <use style="stroke:#000000;" x="635.318182" xlink:href="#m08c3130dad" y="213.510161"/>
    </g>
   </g>
   <g id="line2d_36">
    <path clip-path="url(#pd28ea5c6b4)" d="M 394.363636 142.834642 
L 396.140868 142.711776 
L 397.9181 142.350778 
L 399.695332 141.774099 
L 401.980344 140.775515 
L 405.280917 139.031517 
L 409.089271 137.05999 
L 411.120393 136.248863 
L 412.897625 135.777718 
L 414.420966 135.597094 
L 415.944308 135.654234 
L 417.467649 135.971866 
L 418.990991 136.564585 
L 420.514333 137.438021 
L 422.037674 138.58828 
L 423.561016 140.001669 
L 425.338247 141.951352 
L 427.369369 144.509267 
L 430.162162 148.409388 
L 435.239967 155.557776 
L 437.271089 158.000897 
L 438.794431 159.532886 
L 440.317772 160.740234 
L 441.587224 161.4592 
L 442.856675 161.888007 
L 443.872236 162.006804 
L 444.887797 161.916139 
L 445.903358 161.609067 
L 446.918919 161.081074 
L 447.93448 160.330189 
L 449.203931 159.079427 
L 450.473382 157.488921 
L 451.996724 155.151965 
L 453.520066 152.382914 
L 455.297297 148.673612 
L 457.58231 143.305315 
L 460.882883 134.872591 
L 464.691237 125.265014 
L 466.722359 120.704098 
L 468.49959 117.272649 
L 470.022932 114.860682 
L 471.292383 113.285383 
L 472.307944 112.3389 
L 473.323505 111.6905 
L 474.339066 111.354816 
L 475.100737 111.315312 
L 475.862408 111.46187 
L 476.624079 111.797018 
L 477.63964 112.539494 
L 478.655201 113.619694 
L 479.670762 115.033989 
L 480.940213 117.260047 
L 482.209664 119.973575 
L 483.733006 123.827975 
L 485.510238 129.057604 
L 487.54136 135.824557 
L 490.334152 146.046289 
L 495.919738 166.714995 
L 497.95086 173.263095 
L 499.474201 177.52419 
L 500.743653 180.55282 
L 502.013104 183.040592 
L 503.028665 184.604874 
L 504.044226 185.764717 
L 504.805897 186.357176 
L 505.567568 186.704187 
L 506.329238 186.800354 
L 507.090909 186.641716 
L 507.85258 186.225789 
L 508.614251 185.551598 
L 509.375921 184.6197 
L 510.391482 182.980163 
L 511.407043 180.895712 
L 512.676495 177.686571 
L 513.945946 173.843062 
L 515.469287 168.46412 
L 517.246519 161.267748 
L 519.277641 152.080145 
L 522.324324 137.130384 
L 526.640459 115.958111 
L 528.671581 107.013859 
L 530.448812 100.167366 
L 531.972154 95.22223 
L 533.241605 91.856873 
L 534.257166 89.708505 
L 535.272727 88.075799 
L 536.034398 87.204558 
L 536.796069 86.645568 
L 537.55774 86.405426 
L 538.31941 86.488918 
L 539.081081 86.898977 
L 539.842752 87.63664 
L 540.604423 88.70103 
L 541.619984 90.623322 
L 542.635545 93.109241 
L 543.651106 96.140722 
L 544.920557 100.660136 
L 546.443898 107.073814 
L 548.22113 115.757403 
L 550.252252 126.960211 
L 553.045045 143.819166 
L 558.37674 176.333787 
L 560.407862 187.271335 
L 562.185094 195.578501 
L 563.708436 201.528528 
L 564.977887 205.539205 
L 565.993448 208.070534 
L 567.009009 209.963429 
L 567.77068 210.947608 
L 568.532351 211.548321 
L 569.040131 211.732294 
L 569.547912 211.741276 
L 570.055692 211.57423 
L 570.563473 211.230571 
L 571.325143 210.38377 
L 572.086814 209.140883 
L 572.848485 207.505713 
L 573.864046 204.726179 
L 574.879607 201.281258 
L 576.149058 196.082702 
L 577.418509 189.958491 
L 578.941851 181.509344 
L 580.719083 170.360642 
L 583.004095 154.490977 
L 591.382473 94.375185 
L 593.159705 83.947297 
L 594.683047 76.317534 
L 595.952498 71.03292 
L 596.968059 67.579064 
L 597.98362 64.859474 
L 598.745291 63.323142 
L 599.506962 62.231926 
L 600.268632 61.595428 
L 600.776413 61.427301 
L 601.284193 61.465894 
L 601.791974 61.71212 
L 602.299754 62.166365 
L 603.061425 63.237296 
L 603.823096 64.773049 
L 604.584767 66.768149 
L 605.600328 70.12831 
L 606.615889 74.263506 
L 607.88534 80.468335 
L 609.154791 87.743201 
L 610.678133 97.73792 
L 612.455364 110.872092 
L 614.740377 129.487448 
L 622.864865 197.472007 
L 624.642097 209.709716 
L 626.165438 218.6992 
L 627.434889 224.958228 
L 628.45045 229.076616 
L 629.466011 232.351236 
L 630.227682 234.228592 
L 630.989353 235.594161 
L 631.751024 236.436788 
L 632.258804 236.70384 
L 632.766585 236.733073 
L 633.274365 236.5234 
L 633.782146 236.074342 
L 634.289926 235.38603 
L 635.051597 233.906763 
L 635.813268 231.896107 
L 636.828829 228.403256 
L 637.84439 224.008582 
L 639.113841 217.30493 
L 640.383292 209.344454 
L 641.906634 198.295155 
L 643.683866 183.640563 
L 645.968878 162.682419 
L 648 142.834642 
L 648 142.834642 
" style="fill:none;stroke:#000000;stroke-dasharray:5.55,2.4;stroke-dashoffset:0;stroke-width:1.5;"/>
   </g>
   <g id="line2d_37">
    <path clip-path="url(#pd28ea5c6b4)" d="M 394.363636 142.81822 
L 395.633088 141.42651 
L 397.156429 139.394792 
L 399.187551 136.233693 
L 405.280917 126.346918 
L 406.804259 124.453917 
L 408.07371 123.232939 
L 409.089271 122.532717 
L 410.104832 122.107571 
L 410.866503 121.983334 
L 411.628174 122.035324 
L 412.389844 122.270599 
L 413.151515 122.694848 
L 414.167076 123.561611 
L 415.182637 124.77763 
L 416.198198 126.34382 
L 417.467649 128.786844 
L 418.737101 131.749179 
L 420.260442 135.939645 
L 422.037674 141.591672 
L 424.322686 149.767856 
L 431.177723 175.097341 
L 432.701065 179.718921 
L 433.970516 183.016284 
L 435.239967 185.724775 
L 436.255528 187.421356 
L 437.271089 188.667432 
L 438.03276 189.290965 
L 438.794431 189.637677 
L 439.556102 189.699764 
L 440.317772 189.470671 
L 441.079443 188.945066 
L 441.841114 188.118847 
L 442.602785 186.989167 
L 443.618346 185.008462 
L 444.633907 182.486206 
L 445.649468 179.4281 
L 446.918919 174.870587 
L 448.44226 168.377811 
L 449.965602 160.871159 
L 451.996724 149.562222 
L 454.789517 132.488088 
L 458.851761 107.742699 
L 460.882883 96.839077 
L 462.406224 89.727315 
L 463.929566 83.689902 
L 465.199017 79.552082 
L 466.214578 76.857951 
L 467.230139 74.731403 
L 468.2457 73.189367 
L 469.007371 72.426547 
L 469.769042 72.00934 
L 470.276822 71.926989 
L 470.784603 72.004016 
L 471.292383 72.242847 
L 472.054054 72.909905 
L 472.815725 73.955074 
L 473.577396 75.386757 
L 474.592957 77.910672 
L 475.608518 81.152451 
L 476.624079 85.123734 
L 477.89353 91.118326 
L 479.162981 98.23873 
L 480.686323 108.183209 
L 482.463554 121.453084 
L 485.002457 142.492725 
L 489.064701 176.287999 
L 490.841933 189.256214 
L 492.365274 198.959139 
L 493.888616 207.221965 
L 495.158067 212.975322 
L 496.427518 217.693537 
L 497.443079 220.720785 
L 498.45864 223.079061 
L 499.220311 224.404141 
L 499.981982 225.344147 
L 500.743653 225.893955 
L 501.251433 226.040932 
L 501.759214 226.010171 
L 502.266994 225.799765 
L 502.774775 225.407692 
L 503.536446 224.47418 
L 504.298116 223.118969 
L 505.059787 221.33298 
L 506.075348 218.263789 
L 507.090909 214.383803 
L 508.10647 209.665369 
L 509.375921 202.552092 
L 510.645373 194.068517 
L 512.168714 182.12607 
L 513.945946 166.053839 
L 516.484848 140.599726 
L 519.277641 112.989334 
L 521.054873 97.6904 
L 522.578215 86.610413 
L 523.847666 78.836922 
L 525.117117 72.265564 
L 526.386568 66.736024 
L 527.65602 62.116395 
L 528.925471 58.34091 
L 529.941032 55.928564 
L 530.956593 54.082066 
L 531.718264 53.088886 
L 532.479934 52.448297 
L 533.241605 52.174852 
L 533.749386 52.203321 
L 534.257166 52.405016 
L 534.764947 52.783949 
L 535.526618 53.694071 
L 536.288288 55.028907 
L 537.049959 56.808124 
L 538.06552 59.91387 
L 539.081081 63.922591 
L 540.096642 68.915597 
L 541.112203 74.976971 
L 542.381654 84.16245 
L 543.651106 95.187186 
L 545.174447 110.697641 
L 547.205569 134.196845 
L 550.252252 169.816499 
L 551.775594 185.031156 
L 553.045045 195.674093 
L 554.314496 204.527633 
L 555.583948 211.931391 
L 557.107289 219.48519 
L 558.630631 226.042677 
L 560.153972 231.660243 
L 561.423423 235.417655 
L 562.438984 237.658052 
L 563.200655 238.831705 
L 563.962326 239.547139 
L 564.470106 239.76635 
L 564.977887 239.781038 
L 565.485667 239.595002 
L 565.993448 239.213456 
L 566.755119 238.287521 
L 567.51679 236.954179 
L 568.27846 235.227315 
L 569.294021 232.317916 
L 570.309582 228.687027 
L 571.325143 224.258931 
L 572.340704 218.912483 
L 573.356265 212.494996 
L 574.371826 204.848527 
L 575.641278 193.379156 
L 576.910729 179.748262 
L 578.43407 160.974652 
L 582.242424 112.469712 
L 583.511876 99.745214 
L 584.527437 91.611863 
L 585.542998 85.20211 
L 586.558559 80.18305 
L 587.82801 75.195241 
L 589.605242 69.332252 
L 591.382473 64.125382 
L 592.651925 61.068396 
L 593.667486 59.27065 
L 594.429156 58.380802 
L 595.190827 57.906024 
L 595.698608 57.816743 
L 596.206388 57.900402 
L 596.968059 58.32489 
L 597.72973 59.067388 
L 598.745291 60.473044 
L 599.760852 62.277087 
L 601.030303 65.048274 
L 602.045864 67.73826 
L 603.061425 70.998228 
L 604.076986 75.052432 
L 605.092547 80.188436 
L 606.108108 86.720278 
L 607.123669 94.928657 
L 608.13923 104.979333 
L 609.408681 120.044029 
L 611.185913 144.318988 
L 613.217035 171.476766 
L 614.232596 182.632578 
L 615.248157 191.417091 
L 616.009828 196.460005 
L 617.025389 201.524717 
L 618.29484 206.34878 
L 619.818182 212.027294 
L 621.087633 217.634968 
L 623.626536 229.300795 
L 624.388206 231.915647 
L 625.149877 233.774728 
L 625.657658 234.551182 
L 626.165438 234.95172 
L 626.673219 234.988805 
L 627.180999 234.687637 
L 627.68878 234.083255 
L 628.45045 232.700652 
L 629.466011 230.209688 
L 631.243243 225.028777 
L 633.782146 217.775516 
L 635.813268 212.008094 
L 636.828829 208.451383 
L 637.5905 205.132139 
L 638.35217 201.013001 
L 639.113841 195.881194 
L 640.129402 187.166357 
L 641.144963 176.138704 
L 642.414414 159.413143 
L 645.714988 113.027016 
L 646.730549 102.70487 
L 647.492219 97.035424 
L 648 94.205693 
L 648 94.205693 
" style="fill:none;stroke:#ff0000;stroke-dasharray:5.55,2.4;stroke-dashoffset:0;stroke-width:1.5;"/>
   </g>
   <g id="patch_8">
    <path d="M 394.363636 252 
L 394.363636 34.56 
" style="fill:none;stroke:#ffffff;stroke-linecap:square;stroke-linejoin:miter;stroke-width:0.8;"/>
   </g>
   <g id="patch_9">
    <path d="M 648 252 
L 648 34.56 
" style="fill:none;stroke:#ffffff;stroke-linecap:square;stroke-linejoin:miter;stroke-width:0.8;"/>
   </g>
   <g id="patch_10">
    <path d="M 394.363636 252 
L 648 252 
" style="fill:none;stroke:#ffffff;stroke-linecap:square;stroke-linejoin:miter;stroke-width:0.8;"/>
   </g>
   <g id="patch_11">
    <path d="M 394.363636 34.56 
L 648 34.56 
" style="fill:none;stroke:#ffffff;stroke-linecap:square;stroke-linejoin:miter;stroke-width:0.8;"/>
   </g>
   <g id="text_26">
    <!-- PBLM -->
    <g style="fill:#262626;" transform="translate(504.843068 28.56)scale(0.12 -0.12)">
     <defs>
      <path d="M 494 0 
L 494 4581 
L 2222 4581 
Q 2678 4581 2919 4538 
Q 3256 4481 3484 4323 
Q 3713 4166 3852 3881 
Q 3991 3597 3991 3256 
Q 3991 2672 3619 2267 
Q 3247 1863 2275 1863 
L 1100 1863 
L 1100 0 
L 494 0 
z
M 1100 2403 
L 2284 2403 
Q 2872 2403 3119 2622 
Q 3366 2841 3366 3238 
Q 3366 3525 3220 3729 
Q 3075 3934 2838 4000 
Q 2684 4041 2272 4041 
L 1100 4041 
L 1100 2403 
z
" id="ArialMT-50" transform="scale(0.015625)"/>
      <path d="M 469 0 
L 469 4581 
L 2188 4581 
Q 2713 4581 3030 4442 
Q 3347 4303 3526 4014 
Q 3706 3725 3706 3409 
Q 3706 3116 3547 2856 
Q 3388 2597 3066 2438 
Q 3481 2316 3704 2022 
Q 3928 1728 3928 1328 
Q 3928 1006 3792 729 
Q 3656 453 3456 303 
Q 3256 153 2954 76 
Q 2653 0 2216 0 
L 469 0 
z
M 1075 2656 
L 2066 2656 
Q 2469 2656 2644 2709 
Q 2875 2778 2992 2937 
Q 3109 3097 3109 3338 
Q 3109 3566 3000 3739 
Q 2891 3913 2687 3977 
Q 2484 4041 1991 4041 
L 1075 4041 
L 1075 2656 
z
M 1075 541 
L 2216 541 
Q 2509 541 2628 563 
Q 2838 600 2978 687 
Q 3119 775 3209 942 
Q 3300 1109 3300 1328 
Q 3300 1584 3169 1773 
Q 3038 1963 2805 2039 
Q 2572 2116 2134 2116 
L 1075 2116 
L 1075 541 
z
" id="ArialMT-42" transform="scale(0.015625)"/>
     </defs>
     <use xlink:href="#ArialMT-50"/>
     <use x="66.699219" xlink:href="#ArialMT-42"/>
     <use x="133.398438" xlink:href="#ArialMT-4c"/>
     <use x="189.013672" xlink:href="#ArialMT-4d"/>
    </g>
   </g>
  </g>
  <g id="legend_1">
   <g id="patch_12">
    <path d="M 645.25 78.84375 
L 713 78.84375 
Q 715 78.84375 715 76.84375 
L 715 7 
Q 715 5 713 5 
L 645.25 5 
Q 643.25 5 643.25 7 
L 643.25 76.84375 
Q 643.25 78.84375 645.25 78.84375 
z
" style="fill:#eaeaf2;opacity:0.8;stroke:#cccccc;stroke-linejoin:miter;"/>
   </g>
   <g id="line2d_38">
    <path d="M 647.25 12.657812 
L 667.25 12.657812 
" style="fill:none;stroke:#808080;stroke-linecap:round;stroke-width:1.5;"/>
   </g>
   <g id="line2d_39"/>
   <g id="text_27">
    <!-- True -->
    <g style="fill:#262626;" transform="translate(675.25 16.157812)scale(0.1 -0.1)">
     <defs>
      <path d="M 1659 0 
L 1659 4041 
L 150 4041 
L 150 4581 
L 3781 4581 
L 3781 4041 
L 2266 4041 
L 2266 0 
L 1659 0 
z
" id="ArialMT-54" transform="scale(0.015625)"/>
      <path d="M 416 0 
L 416 3319 
L 922 3319 
L 922 2816 
Q 1116 3169 1280 3281 
Q 1444 3394 1641 3394 
Q 1925 3394 2219 3213 
L 2025 2691 
Q 1819 2813 1613 2813 
Q 1428 2813 1281 2702 
Q 1134 2591 1072 2394 
Q 978 2094 978 1738 
L 978 0 
L 416 0 
z
" id="ArialMT-72" transform="scale(0.015625)"/>
      <path d="M 2597 0 
L 2597 488 
Q 2209 -75 1544 -75 
Q 1250 -75 995 37 
Q 741 150 617 320 
Q 494 491 444 738 
Q 409 903 409 1263 
L 409 3319 
L 972 3319 
L 972 1478 
Q 972 1038 1006 884 
Q 1059 663 1231 536 
Q 1403 409 1656 409 
Q 1909 409 2131 539 
Q 2353 669 2445 892 
Q 2538 1116 2538 1541 
L 2538 3319 
L 3100 3319 
L 3100 0 
L 2597 0 
z
" id="ArialMT-75" transform="scale(0.015625)"/>
     </defs>
     <use xlink:href="#ArialMT-54"/>
     <use x="57.333984" xlink:href="#ArialMT-72"/>
     <use x="90.634766" xlink:href="#ArialMT-75"/>
     <use x="146.25" xlink:href="#ArialMT-65"/>
    </g>
   </g>
   <g id="line2d_40"/>
   <g id="line2d_41">
    <g>
     <use style="stroke:#000000;" x="657.25" xlink:href="#m08c3130dad" y="26.803125"/>
    </g>
   </g>
   <g id="text_28">
    <!-- Training -->
    <g style="fill:#262626;" transform="translate(675.25 30.303125)scale(0.1 -0.1)">
     <defs>
      <path d="M 425 3934 
L 425 4581 
L 988 4581 
L 988 3934 
L 425 3934 
z
M 425 0 
L 425 3319 
L 988 3319 
L 988 0 
L 425 0 
z
" id="ArialMT-69" transform="scale(0.015625)"/>
      <path d="M 422 0 
L 422 3319 
L 928 3319 
L 928 2847 
Q 1294 3394 1984 3394 
Q 2284 3394 2536 3286 
Q 2788 3178 2913 3003 
Q 3038 2828 3088 2588 
Q 3119 2431 3119 2041 
L 3119 0 
L 2556 0 
L 2556 2019 
Q 2556 2363 2490 2533 
Q 2425 2703 2258 2804 
Q 2091 2906 1866 2906 
Q 1506 2906 1245 2678 
Q 984 2450 984 1813 
L 984 0 
L 422 0 
z
" id="ArialMT-6e" transform="scale(0.015625)"/>
      <path d="M 319 -275 
L 866 -356 
Q 900 -609 1056 -725 
Q 1266 -881 1628 -881 
Q 2019 -881 2231 -725 
Q 2444 -569 2519 -288 
Q 2563 -116 2559 434 
Q 2191 0 1641 0 
Q 956 0 581 494 
Q 206 988 206 1678 
Q 206 2153 378 2554 
Q 550 2956 876 3175 
Q 1203 3394 1644 3394 
Q 2231 3394 2613 2919 
L 2613 3319 
L 3131 3319 
L 3131 450 
Q 3131 -325 2973 -648 
Q 2816 -972 2473 -1159 
Q 2131 -1347 1631 -1347 
Q 1038 -1347 672 -1080 
Q 306 -813 319 -275 
z
M 784 1719 
Q 784 1066 1043 766 
Q 1303 466 1694 466 
Q 2081 466 2343 764 
Q 2606 1063 2606 1700 
Q 2606 2309 2336 2618 
Q 2066 2928 1684 2928 
Q 1309 2928 1046 2623 
Q 784 2319 784 1719 
z
" id="ArialMT-67" transform="scale(0.015625)"/>
     </defs>
     <use xlink:href="#ArialMT-54"/>
     <use x="57.333984" xlink:href="#ArialMT-72"/>
     <use x="90.634766" xlink:href="#ArialMT-61"/>
     <use x="146.25" xlink:href="#ArialMT-69"/>
     <use x="168.466797" xlink:href="#ArialMT-6e"/>
     <use x="224.082031" xlink:href="#ArialMT-69"/>
     <use x="246.298828" xlink:href="#ArialMT-6e"/>
     <use x="301.914062" xlink:href="#ArialMT-67"/>
    </g>
   </g>
   <g id="line2d_42">
    <path d="M 647.25 41.065625 
L 667.25 41.065625 
" style="fill:none;stroke:#0000ff;stroke-dasharray:5.55,2.4;stroke-dashoffset:0;stroke-width:1.5;"/>
   </g>
   <g id="line2d_43"/>
   <g id="text_29">
    <!-- GLM -->
    <g style="fill:#262626;" transform="translate(675.25 44.565625)scale(0.1 -0.1)">
     <use xlink:href="#ArialMT-47"/>
     <use x="77.783203" xlink:href="#ArialMT-4c"/>
     <use x="133.398438" xlink:href="#ArialMT-4d"/>
    </g>
   </g>
   <g id="line2d_44">
    <path d="M 647.25 55.210937 
L 667.25 55.210937 
" style="fill:none;stroke:#000000;stroke-dasharray:5.55,2.4;stroke-dashoffset:0;stroke-width:1.5;"/>
   </g>
   <g id="line2d_45"/>
   <g id="text_30">
    <!-- IM -->
    <g style="fill:#262626;" transform="translate(675.25 58.710937)scale(0.1 -0.1)">
     <defs>
      <path d="M 597 0 
L 597 4581 
L 1203 4581 
L 1203 0 
L 597 0 
z
" id="ArialMT-49" transform="scale(0.015625)"/>
     </defs>
     <use xlink:href="#ArialMT-49"/>
     <use x="27.783203" xlink:href="#ArialMT-4d"/>
    </g>
   </g>
   <g id="line2d_46">
    <path d="M 647.25 69.35625 
L 667.25 69.35625 
" style="fill:none;stroke:#ff0000;stroke-dasharray:5.55,2.4;stroke-dashoffset:0;stroke-width:1.5;"/>
   </g>
   <g id="line2d_47"/>
   <g id="text_31">
    <!-- PBLM -->
    <g style="fill:#262626;" transform="translate(675.25 72.85625)scale(0.1 -0.1)">
     <use xlink:href="#ArialMT-50"/>
     <use x="66.699219" xlink:href="#ArialMT-42"/>
     <use x="133.398438" xlink:href="#ArialMT-4c"/>
     <use x="189.013672" xlink:href="#ArialMT-4d"/>
    </g>
   </g>
  </g>
 </g>
 <defs>
  <clipPath id="p34d8c891ef">
   <rect height="217.44" width="253.636364" x="90" y="34.56"/>
  </clipPath>
  <clipPath id="pd28ea5c6b4">
   <rect height="217.44" width="253.636364" x="394.363636" y="34.56"/>
  </clipPath>
 </defs>
</svg>
